<svg width="60" height="20" viewBox="0 0 60 20" fill="none" xmlns="http://www.w3.org/2000/svg">
<path d="M9.34632 0.741803C9.85127 0.27027 10.654 0.27027 11.1589 0.741803L20.1098 9.10036C20.637 9.5927 20.637 10.4073 20.1098 10.8996L11.1589 19.2582C10.654 19.7297 9.85127 19.7297 9.34632 19.2582L0.395424 10.8996C-0.131808 10.4073 -0.131808 9.5927 0.395424 9.10036L9.34632 0.741803Z" fill="#C7C7C7"/>
<path fill-rule="evenodd" clip-rule="evenodd" d="M12.0483 7.01743C12.3965 6.8477 12.7738 6.77608 13.2005 6.80079C13.939 6.84356 14.4605 7.09343 14.9234 7.52974C15.3824 7.96233 15.6294 8.44892 15.7962 9.00023C15.8497 9.17714 15.8914 9.34956 15.9145 9.52491H17.1833V10.6723H15.78C15.5848 11.2438 15.2997 11.5475 14.9092 11.8916C14.6541 12.1164 14.3988 12.2883 14.0973 12.3963C13.7987 12.5033 13.495 12.533 13.1674 12.533C12.6057 12.533 12.2265 12.497 11.8617 12.3986C11.5816 12.3231 11.3157 12.2106 11.0099 12.0811C10.9406 12.0517 10.8693 12.0215 10.7953 11.9907C10.778 11.9835 10.7601 11.9762 10.7419 11.969C10.7286 12.0179 10.7143 12.0666 10.699 12.1149C10.5256 12.6592 10.2061 13.1663 9.54303 13.4844C8.74882 13.8654 8.02306 13.8983 7.20024 13.6619C6.72875 13.5265 6.45314 13.2734 6.21677 13.0564C6.18266 13.0251 6.14938 12.9945 6.11644 12.9652C5.63054 12.5322 5.49267 12.0972 5.36799 11.601C5.31899 11.406 5.28473 11.2173 5.26837 11.0309H3.84473V9.88348H5.41842C5.47566 9.7234 5.54695 9.56481 5.63027 9.40418C5.90326 8.87787 6.18267 8.46696 6.81559 8.15105C7.23424 7.94209 7.75958 7.93516 8.09663 7.95225C8.28064 7.96158 8.44372 7.98053 8.56077 7.99705C8.61964 8.00536 8.66772 8.01318 8.702 8.01911L8.7429 8.02643L8.75502 8.02872L8.75888 8.02947L8.76025 8.02974C8.76025 8.02974 8.76123 8.02994 8.64948 8.59265L8.76025 8.02974L8.80859 8.03934L10.3301 8.61896L10.4847 8.65904C10.688 8.25821 10.8343 8.05408 11.1731 7.69623C11.4291 7.42585 11.7095 7.18258 12.0483 7.01743ZM10.036 9.72805L9.98081 9.71374L8.49524 9.14781C8.47174 9.14385 8.43953 9.13872 8.40037 9.13319C8.30783 9.12012 8.17996 9.10535 8.03853 9.09818C7.7247 9.08227 7.4612 9.11119 7.32801 9.17767C7.01085 9.33598 6.87475 9.50121 6.66365 9.90402L9.4063 10.3963L9.41629 10.3985L9.42042 10.3994L9.43062 10.4016L9.46814 10.41C9.50038 10.4172 9.54667 10.4277 9.60404 10.4412C9.67188 10.4571 9.75551 10.4772 9.84995 10.5008C9.85943 10.4488 9.86933 10.3967 9.87974 10.3447C9.92429 10.1219 9.9757 9.92039 10.036 9.72805ZM10.9578 10.8249C10.9722 10.7408 10.9875 10.6562 11.0049 10.5697C11.0451 10.3683 11.0915 10.1898 11.1485 10.0165L11.9697 10.2294L14.4797 10.6723H14.5048C14.4211 10.7829 14.3104 10.8899 14.1506 11.0308C13.964 11.1952 13.8324 11.2724 13.7103 11.3161C13.5853 11.3609 13.4285 11.3856 13.1674 11.3856C12.6534 11.3856 12.3871 11.3519 12.1603 11.2908C11.9628 11.2375 11.7857 11.1628 11.4896 11.0378C11.4138 11.0059 11.3303 10.9706 11.2367 10.9316C11.1486 10.8949 11.0547 10.8593 10.9578 10.8249ZM14.7496 9.52491C14.7364 9.46698 14.7194 9.40345 14.6979 9.33247C14.5723 8.91728 14.4123 8.6247 14.1364 8.36472C13.8645 8.10846 13.5963 7.97304 13.1342 7.94627C12.8853 7.93186 12.7064 7.97307 12.551 8.04882C12.3862 8.12915 12.2156 8.26401 12.0063 8.48509C11.8212 8.68056 11.7243 8.79606 11.6286 8.95561L12.2137 9.10731L14.5802 9.52491H14.7496ZM9.64429 11.6322C9.52616 11.6022 9.4221 11.5771 9.34183 11.5583C9.28833 11.5457 9.2456 11.536 9.21654 11.5294L9.18362 11.5221L6.44702 11.0309H6.42283C6.4352 11.1196 6.45424 11.2156 6.4808 11.3213C6.58817 11.7486 6.65475 11.908 6.87976 12.1085C6.92456 12.1484 6.96461 12.1845 7.00094 12.2172C7.23832 12.4311 7.3165 12.5015 7.51706 12.5591C8.09391 12.7249 8.52794 12.6987 9.04676 12.4499C9.35543 12.3018 9.50209 12.0918 9.60568 11.7666C9.61942 11.7235 9.63221 11.6788 9.64429 11.6322Z" fill="#1D1D1D"/>
<path d="M23.0684 11.9831C23.0684 11.3023 23.2762 10.7738 23.6918 10.3978C24.1114 10.0178 24.4716 9.78624 24.7724 9.70311V9.67342C24.436 9.56655 24.1074 9.35675 23.7868 9.04404C23.4701 8.72737 23.3118 8.31175 23.3118 7.79716C23.3118 7.17965 23.5612 6.66111 24.0599 6.24152C24.5626 5.82194 25.2494 5.61214 26.1203 5.61214C26.9911 5.61214 27.6759 5.82194 28.1746 6.24152C28.6774 6.66111 28.9287 7.17965 28.9287 7.79716C28.9287 8.31175 28.7684 8.72737 28.4478 9.04404C28.1311 9.35675 27.8045 9.56655 27.4681 9.67342V9.70311C27.7689 9.78624 28.1271 10.0178 28.5428 10.3978C28.9624 10.7738 29.1722 11.3023 29.1722 11.9831C29.1722 12.7154 28.9327 13.3112 28.4537 13.7703C27.9787 14.2295 27.2009 14.4591 26.1203 14.4591C25.0396 14.4591 24.2598 14.2295 23.7809 13.7703C23.3059 13.3112 23.0684 12.7154 23.0684 11.9831ZM24.8496 11.805C24.8496 12.2523 24.9486 12.5848 25.1465 12.8025C25.3444 13.0202 25.669 13.1291 26.1203 13.1291C26.5715 13.1291 26.8961 13.0202 27.094 12.8025C27.2919 12.5848 27.3909 12.2523 27.3909 11.805C27.3909 11.4646 27.282 11.1519 27.0643 10.8669C26.8506 10.5779 26.5359 10.4334 26.1203 10.4334C25.7046 10.4334 25.388 10.5779 25.1702 10.8669C24.9565 11.1519 24.8496 11.4646 24.8496 11.805ZM25.0456 7.97529C25.0456 8.29195 25.1346 8.54133 25.3127 8.72342C25.4948 8.9055 25.764 8.99654 26.1203 8.99654C26.4765 8.99654 26.7437 8.9055 26.9218 8.72342C27.1039 8.54133 27.195 8.29195 27.195 7.97529C27.195 7.65862 27.0999 7.40726 26.9099 7.22122C26.7239 7.03517 26.4607 6.94215 26.1203 6.94215C25.7798 6.94215 25.5146 7.03517 25.3246 7.22122C25.1386 7.40726 25.0456 7.65862 25.0456 7.97529Z" fill="#C7C7C7"/>
<path d="M30.3188 14.2572C30.0417 14.2572 29.9032 14.1088 29.9032 13.8119V6.18809C29.9032 5.89121 30.0417 5.74277 30.3188 5.74277H31.2213C31.4984 5.74277 31.6369 5.89121 31.6369 6.18809V8.55123C31.6369 8.78873 31.627 9.02623 31.6073 9.26373H31.6488L34.5345 6.09308C34.7482 5.85954 34.9303 5.74277 35.0807 5.74277H36.2742C36.7373 5.74277 36.8125 5.91298 36.4998 6.2534L33.7982 9.21029L36.6898 13.7466C36.9075 14.087 36.8323 14.2572 36.4642 14.2572H35.3538C35.148 14.2572 34.9699 14.1404 34.8195 13.9069L32.6344 10.4809L31.6369 11.6031V13.8119C31.6369 14.1088 31.4984 14.2572 31.2213 14.2572H30.3188Z" fill="#C7C7C7"/>
<path d="M37.6761 14.2572C37.399 14.2572 37.2605 14.1088 37.2605 13.8119V6.18809C37.2605 5.89121 37.399 5.74277 37.6761 5.74277H38.5549C38.8953 5.74277 39.1526 5.88131 39.3268 6.1584L42.3549 11.0212H42.3965C42.3767 10.7837 42.3668 10.5462 42.3668 10.3087V6.18809C42.3668 5.89121 42.5053 5.74277 42.7824 5.74277H43.6849C43.962 5.74277 44.1006 5.89121 44.1006 6.18809V13.8119C44.1006 14.1088 43.962 14.2572 43.6849 14.2572H42.8655C42.5251 14.2572 42.2678 14.1187 42.0937 13.8416L39.0061 8.88967H38.9646C38.9844 9.12717 38.9943 9.36467 38.9943 9.60217V13.8119C38.9943 14.1088 38.8557 14.2572 38.5786 14.2572H37.6761Z" fill="#C7C7C7"/>
<path d="M44.8316 9.99999C44.8316 8.63435 45.1839 7.54976 45.8885 6.74621C46.5931 5.94267 47.5985 5.54089 48.9047 5.54089C50.211 5.54089 51.2164 5.94267 51.921 6.74621C52.6256 7.54976 52.9779 8.63435 52.9779 9.99999C52.9779 11.3656 52.6256 12.4502 51.921 13.2538C51.2164 14.0573 50.211 14.4591 48.9047 14.4591C47.5985 14.4591 46.5931 14.0573 45.8885 13.2538C45.1839 12.4502 44.8316 11.3656 44.8316 9.99999ZM46.6841 9.99999C46.6841 10.9896 46.8602 11.7476 47.2125 12.2741C47.5688 12.7966 48.1329 13.0578 48.9047 13.0578C49.6766 13.0578 50.2387 12.7966 50.591 12.2741C50.9473 11.7476 51.1254 10.9896 51.1254 9.99999C51.1254 9.0104 50.9473 8.25435 50.591 7.73185C50.2387 7.20538 49.6766 6.94215 48.9047 6.94215C48.1329 6.94215 47.5688 7.20538 47.2125 7.73185C46.8602 8.25435 46.6841 9.0104 46.6841 9.99999Z" fill="#C7C7C7"/>
<path d="M53.4061 7.26278C53.1092 7.26278 52.9608 7.13413 52.9608 6.87684V6.12871C52.9608 5.87142 53.1092 5.74277 53.4061 5.74277H59.5099C59.8068 5.74277 59.9552 5.87142 59.9552 6.12871V6.87684C59.9552 7.13413 59.8068 7.26278 59.5099 7.26278H57.3249V13.9306C57.3249 14.1483 57.2259 14.2572 57.028 14.2572H55.888C55.6901 14.2572 55.5911 14.1483 55.5911 13.9306V7.26278H53.4061Z" fill="#C7C7C7"/>
</svg>
