<svg width="49" height="22" viewBox="0 0 49 22" fill="none" xmlns="http://www.w3.org/2000/svg">
<rect x="0.955322" y="0.587036" width="48.0326" height="20.8259" rx="10.413" fill="#C7C7C7"/>
<path d="M28.96 7.46158C28.4774 7.46098 28 7.56259 27.5583 7.75992C27.7596 8.10077 27.9603 8.44239 28.1604 8.7848C28.6936 8.58667 29.2798 8.59333 29.8085 8.80352C30.0005 8.45838 30.1926 8.11383 30.3846 7.76987C29.9366 7.5658 29.451 7.46072 28.96 7.46158Z" fill="#199AD6"/>
<path d="M31.0359 8.15726C30.8343 8.49615 30.6324 8.83466 30.4304 9.17278C30.8803 9.54537 31.1761 10.0758 31.2594 10.6592L32.4242 10.6112C32.3719 10.1271 32.2216 9.6592 31.9826 9.2369C31.7437 8.8146 31.4214 8.44702 31.0359 8.15726Z" fill="#69C7B9"/>
<path d="M27.4668 9.19403L26.8377 8.19431C26.135 8.74247 25.6643 9.5419 25.5214 10.43C25.3786 11.318 25.5742 12.228 26.0687 12.9747L26.9702 12.2143C26.6847 11.733 26.5779 11.164 26.6689 10.6099C26.76 10.0557 27.0429 9.55277 27.4668 9.19169V9.19403Z" fill="#D51B5E"/>
<path d="M31.2414 11.4471C31.1648 11.8495 30.9863 12.2248 30.7234 12.5358C30.4605 12.8468 30.1223 13.0829 29.7422 13.2208C29.3621 13.3587 28.9531 13.3936 28.5556 13.3221C28.1582 13.2505 27.7859 13.0751 27.4756 12.813L26.585 13.5881C27.0529 14.0307 27.6317 14.334 28.2581 14.4648C28.8845 14.5956 29.5342 14.5489 30.1362 14.3297C30.7381 14.1106 31.2691 13.7274 31.6709 13.2223C32.0727 12.7172 32.3299 12.1095 32.4143 11.4658L31.2414 11.4471Z" fill="#BF9CC9"/>
<path d="M9.74899 14.5532C9.07805 14.5532 8.50389 14.4089 8.02651 14.1203C7.54778 13.8313 7.16517 13.4035 6.92793 12.8918C6.67253 12.3614 6.54503 11.7293 6.54541 10.9953C6.54541 10.268 6.67292 9.63896 6.92793 9.10819C7.16549 8.59677 7.54803 8.16901 8.02651 7.87974C8.50351 7.59155 9.07767 7.44745 9.74899 7.44745C10.1365 7.44526 10.5219 7.50447 10.8914 7.62294C11.2319 7.72984 11.5501 7.89981 11.8298 8.12426C11.8783 8.15432 11.9202 8.19428 11.9527 8.24161C11.9852 8.28893 12.0077 8.34259 12.0187 8.3992C12.0364 8.49612 12.0173 8.59625 11.9652 8.67941C11.941 8.719 11.9093 8.75331 11.8719 8.78032C11.8345 8.80734 11.7922 8.82653 11.7474 8.83676C11.6541 8.85938 11.5492 8.82819 11.4329 8.74317C10.9747 8.36995 10.4199 8.18335 9.76858 8.18335C9.00047 8.18335 8.41326 8.42904 8.00693 8.92042C7.6006 9.4118 7.39647 10.1034 7.39455 10.9953C7.39455 11.8923 7.59772 12.5869 8.00405 13.079C8.41037 13.5712 8.99759 13.8169 9.7657 13.8161C10.4186 13.8161 10.9799 13.626 11.4496 13.2457C11.5648 13.1673 11.6702 13.1375 11.7641 13.1574C11.8078 13.1655 11.8494 13.1827 11.8861 13.2081C11.9228 13.2335 11.9539 13.2665 11.9773 13.3048C12.0256 13.3841 12.0444 13.4783 12.0303 13.5704C12.0121 13.6774 11.9529 13.7727 11.8655 13.8354C11.5827 14.0744 11.2576 14.2563 10.9075 14.3712C10.5334 14.4943 10.1422 14.5557 9.74899 14.5532Z" fill="#1D1D1D"/>
<path d="M18.0115 7.46643C17.7465 7.46643 17.6142 7.60741 17.6146 7.88937V10.6019H14.5303C14.4386 10.6019 14.3507 10.6389 14.2859 10.7047C14.221 10.7705 14.1846 10.8598 14.1846 10.9529C14.1846 11.046 14.221 11.1353 14.2859 11.2011C14.3507 11.2669 14.4386 11.3039 14.5303 11.3039H17.6169V14.1147C17.6169 14.3963 17.7492 14.537 18.0138 14.537C18.2784 14.537 18.4106 14.3963 18.4102 14.1147V7.88937C18.4086 7.60741 18.2758 7.46643 18.0115 7.46643ZM13.1235 7.46643C12.8589 7.46643 12.7266 7.60741 12.7266 7.88937V14.1106C12.7266 14.3922 12.8589 14.5329 13.1235 14.5329C13.3816 14.5329 13.5137 14.3988 13.5198 14.1305H13.4933V8.45621H13.5204V7.88937C13.5204 7.60741 13.3881 7.46643 13.1235 7.46643Z" fill="#1D1D1D"/>
<path d="M25.3383 13.9825L22.667 7.83029C22.6296 7.71896 22.5604 7.62143 22.4683 7.55009C22.3901 7.4952 22.2972 7.466 22.2021 7.46644C21.9894 7.46644 21.8313 7.58772 21.728 7.83029L19.0665 13.9825C18.9951 14.1385 18.9886 14.2695 19.0469 14.3756C19.1053 14.4817 19.2119 14.5341 19.3667 14.5329C19.5533 14.5329 19.6985 14.4117 19.8022 14.1691L20.2095 13.1998C20.3631 12.8141 20.5248 12.4224 20.6945 12.0246C20.8013 11.7761 20.9083 11.5316 21.0154 11.291L22.1923 8.47903H22.2119L23.6902 12.017H21.603C21.5209 12.0169 21.4417 12.0479 21.3809 12.1039C21.32 12.1599 21.282 12.237 21.2741 12.32V12.327C21.2696 12.3736 21.2747 12.4206 21.2892 12.4651C21.3037 12.5095 21.3272 12.5504 21.3582 12.5851C21.3892 12.6197 21.427 12.6474 21.4691 12.6663C21.5113 12.6853 21.5569 12.695 21.603 12.695H23.9742L24.6032 14.1691C24.6382 14.2722 24.6975 14.365 24.7761 14.4394C24.855 14.5046 24.9549 14.538 25.0566 14.5329C25.2102 14.5329 25.3135 14.4805 25.3665 14.3756C25.4184 14.2709 25.4092 14.1398 25.3383 13.9825Z" fill="#1D1D1D"/>
<path d="M35.5092 14.5531C35.0663 14.556 34.6251 14.4981 34.1974 14.3811C33.8165 14.2801 33.4573 14.1084 33.138 13.8745C33.0922 13.8465 33.0523 13.8096 33.0206 13.7658C32.989 13.722 32.9662 13.6722 32.9537 13.6194C32.9338 13.5263 32.9458 13.4292 32.9877 13.3439C33.0063 13.3039 33.0326 13.2681 33.065 13.2385C33.0975 13.209 33.1354 13.1864 33.1766 13.1719C33.2603 13.1427 33.3564 13.1639 33.4647 13.2357C33.7438 13.4464 34.0588 13.6031 34.3939 13.6978C34.7578 13.7951 35.1329 13.8423 35.5092 13.8382C36.0899 13.8382 36.5206 13.7284 36.8013 13.5089C36.9355 13.4093 37.0439 13.2783 37.1172 13.1269C37.1906 12.9755 37.2267 12.8083 37.2224 12.6396C37.2274 12.5087 37.2024 12.3784 37.1495 12.2589C37.0965 12.1395 37.0169 12.0341 36.9171 11.9511C36.7143 11.7811 36.3741 11.6469 35.8963 11.5486L34.8899 11.3421C34.2835 11.2111 33.8301 10.9966 33.5298 10.6987C33.2294 10.4007 33.0797 10.0016 33.0804 9.50121C33.0723 9.11646 33.1822 8.73866 33.395 8.42018C33.6157 8.10329 33.9189 7.85498 34.2706 7.70299C34.6803 7.5252 35.1225 7.43805 35.5679 7.44736C35.9535 7.44421 36.3372 7.50224 36.7051 7.61934C37.0512 7.73104 37.3743 7.90588 37.6585 8.13529C37.7408 8.19541 37.7978 8.2848 37.8181 8.38566C37.8351 8.47495 37.8195 8.56747 37.7743 8.64598C37.7541 8.68351 37.7264 8.71643 37.6931 8.74269C37.6598 8.76896 37.6216 8.788 37.5808 8.79865C37.497 8.82166 37.397 8.79709 37.2806 8.72495C37.0405 8.53125 36.767 8.38465 36.4741 8.29265C36.1764 8.20458 35.8676 8.16122 35.5576 8.16396C35.0475 8.16396 34.641 8.28349 34.338 8.52255C34.1926 8.63189 34.0753 8.77522 33.9961 8.9404C33.9169 9.10558 33.878 9.28772 33.8829 9.47138C33.8829 9.7857 33.9789 10.0347 34.1709 10.2184C34.363 10.4021 34.6735 10.5362 35.1025 10.6209L36.1095 10.8373C36.7623 10.975 37.2445 11.183 37.556 11.4615C37.8675 11.7399 38.024 12.1182 38.0255 12.5963C38.0322 12.9612 37.9255 13.319 37.7207 13.6189C37.5003 13.9271 37.1983 14.1654 36.8497 14.3062C36.4726 14.4708 36.0257 14.5531 35.5092 14.5531Z" fill="#1D1D1D"/>
<path d="M40.8801 14.5531C40.4374 14.5559 39.9964 14.4981 39.569 14.3811C39.1878 14.2803 38.8284 14.1085 38.509 13.8745C38.4632 13.8465 38.4234 13.8095 38.3919 13.7657C38.3603 13.7219 38.3377 13.6722 38.3252 13.6194C38.3052 13.5264 38.3169 13.4292 38.3586 13.3439C38.3772 13.3039 38.4035 13.2681 38.436 13.2385C38.4684 13.209 38.5064 13.1864 38.5476 13.1719C38.6317 13.1427 38.7279 13.1637 38.8356 13.2357C39.1147 13.4464 39.4297 13.6031 39.7648 13.6978C40.1287 13.7951 40.5038 13.8423 40.8801 13.8382C41.4608 13.8382 41.8915 13.7284 42.1723 13.5089C42.3064 13.4093 42.4148 13.2783 42.4882 13.1269C42.5615 12.9755 42.5976 12.8083 42.5934 12.6396C42.5983 12.5087 42.5734 12.3785 42.5205 12.2591C42.4677 12.1396 42.3883 12.0342 42.2886 11.9511C42.0855 11.7811 41.745 11.6469 41.2672 11.5486L40.2608 11.3421C39.6544 11.2111 39.201 10.9966 38.9007 10.6987C38.6004 10.4007 38.4504 10.0027 38.4508 9.50472C38.4427 9.11997 38.5526 8.74217 38.7653 8.42369C38.9857 8.10536 39.2891 7.85578 39.6415 7.703C40.051 7.52519 40.4931 7.43805 40.9383 7.44736C41.3239 7.44421 41.7075 7.50224 42.0755 7.61934C42.4215 7.73104 42.7446 7.90588 43.0289 8.13529C43.1116 8.19504 43.1686 8.2846 43.1885 8.38566C43.2057 8.47495 43.1901 8.56756 43.1447 8.64598C43.1244 8.68352 43.0968 8.71643 43.0635 8.7427C43.0302 8.76896 42.9919 8.788 42.9511 8.79866C42.8676 8.82147 42.7674 8.79866 42.6516 8.72495C42.4115 8.53129 42.138 8.3847 41.845 8.29265C41.5474 8.20454 41.2386 8.16118 40.9285 8.16396C40.42 8.16396 40.0135 8.28368 39.7089 8.52313C39.5637 8.63257 39.4465 8.77594 39.3674 8.94111C39.2883 9.10627 39.2495 9.28836 39.2544 9.47196C39.2544 9.78629 39.3504 10.0353 39.5425 10.219C39.7345 10.4027 40.0448 10.5366 40.4734 10.6209L41.4804 10.8373C42.1333 10.975 42.6155 11.183 42.9269 11.4615C43.2384 11.7399 43.3949 12.1182 43.3964 12.5963C43.4031 12.9612 43.2965 13.319 43.0917 13.6189C42.8713 13.9271 42.5692 14.1654 42.2206 14.3062C41.8435 14.4708 41.3967 14.5531 40.8801 14.5531Z" fill="#1D1D1D"/>
</svg>
