<svg width="24" height="24" viewBox="0 0 24 24" fill="none" xmlns="http://www.w3.org/2000/svg">
<path d="M12.0291 2.00001C10.6401 1.99831 9.26601 2.28551 7.99463 2.84329C8.5739 3.80672 9.15152 4.77235 9.72748 5.74018C11.2624 5.18016 12.9497 5.19897 14.4717 5.7931C15.0244 4.81754 15.5771 3.84364 16.1299 2.8714C14.8403 2.29459 13.4425 1.99757 12.0291 2.00001Z" fill="#9C9C9C"/>
<path d="M18.0038 3.96588C17.4234 4.9238 16.8425 5.88061 16.261 6.83632C17.5559 7.88948 18.4074 9.38879 18.6472 11.0378L22.0001 10.9022C21.8495 9.53381 21.4167 8.21124 20.729 7.01757C20.0413 5.8239 19.1134 4.78492 18.0038 3.96588Z" fill="#9C9C9C"/>
<path d="M7.73093 6.89617L5.92015 4.07037C3.89735 5.61979 2.5425 7.87944 2.13126 10.3896C1.72001 12.8998 2.28327 15.4719 3.70642 17.5826L6.30154 15.4331C5.47974 14.0728 5.17217 12.4646 5.43424 10.8982C5.69631 9.33175 6.51079 7.91017 7.73093 6.88955V6.89617Z" fill="#9C9C9C"/>
<path d="M18.5951 13.2654C18.3746 14.4029 17.8607 15.4635 17.104 16.3427C16.3472 17.2218 15.3738 17.8891 14.2796 18.2789C13.1854 18.6686 12.0082 18.7672 10.8642 18.5651C9.72009 18.363 8.64858 17.8671 7.75526 17.1263L5.19165 19.3171C6.53857 20.5681 8.20475 21.4254 10.0077 21.7952C11.8107 22.1649 13.6809 22.0328 15.4137 21.4134C17.1464 20.7939 18.6747 19.711 19.8314 18.2832C20.988 16.8553 21.7283 15.1377 21.9712 13.3183L18.5951 13.2654Z" fill="#9C9C9C"/>
</svg>
