<svg width="49" height="22" viewBox="0 0 49 22" fill="none" xmlns="http://www.w3.org/2000/svg">
<rect x="0.955322" y="0.587036" width="48.0326" height="20.8259" rx="10.413" fill="#C7C7C7"/>
<path d="M28.96 7.46155C28.4774 7.46095 28 7.56256 27.5583 7.75989C27.7596 8.10074 27.9603 8.44236 28.1604 8.78477C28.6936 8.58664 29.2798 8.5933 29.8085 8.80349C30.0005 8.45835 30.1926 8.1138 30.3846 7.76984C29.9366 7.56577 29.451 7.46069 28.96 7.46155Z" fill="#199AD6"/>
<path d="M31.0359 8.15735C30.8343 8.49624 30.6324 8.83475 30.4304 9.17287C30.8803 9.54546 31.1761 10.0759 31.2594 10.6593L32.4242 10.6113C32.3719 10.1272 32.2216 9.65929 31.9826 9.23699C31.7437 8.81469 31.4214 8.44711 31.0359 8.15735Z" fill="#69C7B9"/>
<path d="M27.4668 9.19406L26.8377 8.19434C26.135 8.7425 25.6643 9.54193 25.5214 10.43C25.3786 11.318 25.5742 12.228 26.0687 12.9748L26.9702 12.2143C26.6847 11.733 26.5779 11.1641 26.6689 10.6099C26.76 10.0557 27.0429 9.5528 27.4668 9.19172V9.19406Z" fill="#D51B5E"/>
<path d="M31.2414 11.4471C31.1648 11.8496 30.9863 12.2248 30.7234 12.5358C30.4605 12.8469 30.1223 13.083 29.7422 13.2208C29.3621 13.3587 28.9531 13.3936 28.5556 13.3221C28.1582 13.2506 27.7859 13.0752 27.4756 12.8131L26.585 13.5882C27.0529 14.0307 27.6317 14.3341 28.2581 14.4649C28.8845 14.5957 29.5342 14.5489 30.1362 14.3298C30.7381 14.1106 31.2691 13.7275 31.6709 13.2224C32.0727 12.7172 32.3299 12.1095 32.4143 11.4659L31.2414 11.4471Z" fill="#BF9CC9"/>
<path d="M9.74899 14.5532C9.07805 14.5532 8.50389 14.4089 8.02651 14.1203C7.54778 13.8313 7.16517 13.4035 6.92793 12.8918C6.67253 12.3614 6.54503 11.7293 6.54541 10.9953C6.54541 10.268 6.67292 9.63896 6.92793 9.10819C7.16549 8.59677 7.54803 8.16901 8.02651 7.87974C8.50351 7.59155 9.07767 7.44745 9.74899 7.44745C10.1365 7.44526 10.5219 7.50447 10.8914 7.62294C11.2319 7.72984 11.5501 7.89981 11.8298 8.12426C11.8783 8.15432 11.9202 8.19428 11.9527 8.24161C11.9852 8.28893 12.0077 8.34259 12.0187 8.3992C12.0364 8.49612 12.0173 8.59625 11.9652 8.67941C11.941 8.719 11.9093 8.75331 11.8719 8.78032C11.8345 8.80734 11.7922 8.82653 11.7474 8.83676C11.6541 8.85938 11.5492 8.82819 11.4329 8.74317C10.9747 8.36995 10.4199 8.18335 9.76858 8.18335C9.00047 8.18335 8.41326 8.42904 8.00693 8.92042C7.6006 9.4118 7.39647 10.1034 7.39455 10.9953C7.39455 11.8923 7.59772 12.5869 8.00405 13.079C8.41037 13.5712 8.99759 13.8169 9.7657 13.8161C10.4186 13.8161 10.9799 13.626 11.4496 13.2457C11.5648 13.1673 11.6702 13.1375 11.7641 13.1574C11.8078 13.1655 11.8494 13.1827 11.8861 13.2081C11.9228 13.2335 11.9539 13.2665 11.9773 13.3048C12.0256 13.3841 12.0444 13.4783 12.0303 13.5704C12.0121 13.6774 11.9529 13.7727 11.8655 13.8354C11.5827 14.0744 11.2576 14.2563 10.9075 14.3712C10.5334 14.4943 10.1422 14.5557 9.74899 14.5532Z" fill="#1D1D1D"/>
<path d="M18.0115 7.46643C17.7465 7.46643 17.6142 7.60741 17.6146 7.88937V10.6019H14.5303C14.4386 10.6019 14.3507 10.6389 14.2859 10.7047C14.221 10.7705 14.1846 10.8598 14.1846 10.9529C14.1846 11.046 14.221 11.1353 14.2859 11.2011C14.3507 11.2669 14.4386 11.3039 14.5303 11.3039H17.6169V14.1147C17.6169 14.3963 17.7492 14.537 18.0138 14.537C18.2784 14.537 18.4106 14.3963 18.4102 14.1147V7.88937C18.4086 7.60741 18.2758 7.46643 18.0115 7.46643ZM13.1235 7.46643C12.8589 7.46643 12.7266 7.60741 12.7266 7.88937V14.1106C12.7266 14.3922 12.8589 14.5329 13.1235 14.5329C13.3816 14.5329 13.5137 14.3988 13.5198 14.1305H13.4933V8.45621H13.5204V7.88937C13.5204 7.60741 13.3881 7.46643 13.1235 7.46643Z" fill="#1D1D1D"/>
<path d="M25.3383 13.9825L22.667 7.83029C22.6296 7.71896 22.5604 7.62143 22.4683 7.55009C22.3901 7.4952 22.2972 7.466 22.2021 7.46644C21.9894 7.46644 21.8313 7.58772 21.728 7.83029L19.0665 13.9825C18.9951 14.1385 18.9886 14.2695 19.0469 14.3756C19.1053 14.4817 19.2119 14.5341 19.3667 14.5329C19.5533 14.5329 19.6985 14.4117 19.8022 14.1691L20.2095 13.1998C20.3631 12.8141 20.5248 12.4224 20.6945 12.0246C20.8013 11.7761 20.9083 11.5316 21.0154 11.291L22.1923 8.47903H22.2119L23.6902 12.017H21.603C21.5209 12.0169 21.4417 12.0479 21.3809 12.1039C21.32 12.1599 21.282 12.237 21.2741 12.32V12.327C21.2696 12.3736 21.2747 12.4206 21.2892 12.4651C21.3037 12.5095 21.3272 12.5504 21.3582 12.5851C21.3892 12.6197 21.427 12.6474 21.4691 12.6663C21.5113 12.6853 21.5569 12.695 21.603 12.695H23.9742L24.6032 14.1691C24.6382 14.2722 24.6975 14.365 24.7761 14.4394C24.855 14.5046 24.9549 14.538 25.0566 14.5329C25.2102 14.5329 25.3135 14.4805 25.3665 14.3756C25.4184 14.2709 25.4092 14.1398 25.3383 13.9825Z" fill="#1D1D1D"/>
<path d="M35.5092 14.5532C35.0663 14.5561 34.6251 14.4982 34.1974 14.3812C33.8165 14.2802 33.4573 14.1085 33.138 13.8746C33.0922 13.8466 33.0523 13.8097 33.0206 13.7659C32.989 13.7221 32.9662 13.6723 32.9537 13.6195C32.9338 13.5264 32.9458 13.4293 32.9877 13.344C33.0063 13.304 33.0326 13.2682 33.065 13.2386C33.0975 13.2091 33.1354 13.1864 33.1766 13.172C33.2603 13.1428 33.3564 13.164 33.4647 13.2358C33.7438 13.4465 34.0588 13.6032 34.3939 13.6979C34.7578 13.7952 35.1329 13.8424 35.5092 13.8383C36.0899 13.8383 36.5206 13.7285 36.8013 13.509C36.9355 13.4094 37.0439 13.2784 37.1172 13.127C37.1906 12.9756 37.2267 12.8084 37.2224 12.6397C37.2274 12.5088 37.2024 12.3785 37.1495 12.259C37.0965 12.1395 37.0169 12.0342 36.9171 11.9512C36.7143 11.7811 36.3741 11.647 35.8963 11.5487L34.8899 11.3422C34.2835 11.2112 33.8301 10.9967 33.5298 10.6987C33.2294 10.4008 33.0797 10.0017 33.0804 9.5013C33.0723 9.11655 33.1822 8.73876 33.395 8.42027C33.6157 8.10338 33.9189 7.85508 34.2706 7.70309C34.6803 7.52529 35.1225 7.43814 35.5679 7.44745C35.9535 7.4443 36.3372 7.50233 36.7051 7.61943C37.0512 7.73113 37.3743 7.90597 37.6585 8.13538C37.7408 8.1955 37.7978 8.2849 37.8181 8.38575C37.8351 8.47504 37.8195 8.56756 37.7743 8.64607C37.7541 8.68361 37.7264 8.71652 37.6931 8.74279C37.6598 8.76905 37.6216 8.78809 37.5808 8.79875C37.497 8.82176 37.397 8.79719 37.2806 8.72504C37.0405 8.53134 36.767 8.38474 36.4741 8.29274C36.1764 8.20467 35.8676 8.16132 35.5576 8.16405C35.0475 8.16405 34.641 8.28358 34.338 8.52264C34.1926 8.63198 34.0753 8.77532 33.9961 8.94049C33.9169 9.10567 33.878 9.28781 33.8829 9.47147C33.8829 9.7858 33.9789 10.0348 34.1709 10.2185C34.363 10.4022 34.6735 10.5363 35.1025 10.6209L36.1095 10.8374C36.7623 10.9751 37.2445 11.1831 37.556 11.4616C37.8675 11.74 38.024 12.1183 38.0255 12.5964C38.0322 12.9613 37.9255 13.319 37.7207 13.6189C37.5003 13.9272 37.1983 14.1655 36.8497 14.3063C36.4726 14.4709 36.0257 14.5532 35.5092 14.5532Z" fill="#1D1D1D"/>
<path d="M40.8801 14.5532C40.4374 14.556 39.9964 14.4982 39.569 14.3812C39.1878 14.2804 38.8284 14.1086 38.509 13.8746C38.4632 13.8466 38.4234 13.8096 38.3919 13.7658C38.3603 13.722 38.3377 13.6723 38.3252 13.6195C38.3052 13.5265 38.3169 13.4293 38.3586 13.344C38.3772 13.304 38.4035 13.2682 38.436 13.2386C38.4684 13.2091 38.5064 13.1864 38.5476 13.172C38.6317 13.1428 38.7279 13.1638 38.8356 13.2358C39.1147 13.4465 39.4297 13.6032 39.7648 13.6979C40.1287 13.7952 40.5038 13.8424 40.8801 13.8383C41.4608 13.8383 41.8915 13.7285 42.1723 13.509C42.3064 13.4094 42.4148 13.2784 42.4882 13.127C42.5615 12.9756 42.5976 12.8084 42.5934 12.6397C42.5983 12.5088 42.5734 12.3786 42.5205 12.2591C42.4677 12.1397 42.3883 12.0343 42.2886 11.9512C42.0855 11.7812 41.745 11.647 41.2672 11.5487L40.2608 11.3422C39.6544 11.2112 39.201 10.9967 38.9007 10.6987C38.6004 10.4008 38.4504 10.0028 38.4508 9.50481C38.4427 9.12006 38.5526 8.74227 38.7653 8.42378C38.9857 8.10545 39.2891 7.85587 39.6415 7.70309C40.051 7.52529 40.4931 7.43814 40.9383 7.44745C41.3239 7.4443 41.7075 7.50233 42.0755 7.61944C42.4215 7.73113 42.7446 7.90597 43.0289 8.13538C43.1116 8.19514 43.1686 8.28469 43.1885 8.38575C43.2057 8.47504 43.1901 8.56765 43.1447 8.64607C43.1244 8.68361 43.0968 8.71653 43.0635 8.74279C43.0302 8.76905 42.9919 8.78809 42.9511 8.79875C42.8676 8.82156 42.7674 8.79875 42.6516 8.72504C42.4115 8.53138 42.138 8.38479 41.845 8.29274C41.5474 8.20463 41.2386 8.16127 40.9285 8.16405C40.42 8.16405 40.0135 8.28377 39.7089 8.52322C39.5637 8.63266 39.4465 8.77603 39.3674 8.9412C39.2883 9.10636 39.2495 9.28845 39.2544 9.47205C39.2544 9.78638 39.3504 10.0354 39.5425 10.2191C39.7345 10.4028 40.0448 10.5367 40.4734 10.6209L41.4804 10.8374C42.1333 10.9751 42.6155 11.1831 42.9269 11.4616C43.2384 11.74 43.3949 12.1183 43.3964 12.5964C43.4031 12.9613 43.2965 13.319 43.0917 13.619C42.8713 13.9272 42.5692 14.1655 42.2206 14.3063C41.8435 14.4709 41.3967 14.5532 40.8801 14.5532Z" fill="#1D1D1D"/>
</svg>
