<svg width="24" height="24" viewBox="0 0 24 24" fill="none" xmlns="http://www.w3.org/2000/svg">
<g clip-path="url(#clip0_1912_68617)">
<g clip-path="url(#clip1_1912_68617)">
<path d="M5 7V17C5 18.8856 5 19.8284 5.58579 20.4142C6.17157 21 7.11438 21 9 21H15C16.8856 21 17.8284 21 18.4142 20.4142C19 19.8284 19 18.8856 19 17V9.28145C19 8.40415 19 7.9655 18.827 7.57705C18.654 7.1886 18.328 6.89516 17.6759 6.30827L15.1409 4.02682C14.577 3.51929 14.295 3.26552 13.9491 3.13276C13.6031 3 13.2237 3 12.4651 3H9C7.11438 3 6.17157 3 5.58579 3.58579C5 4.17157 5 5.11438 5 7Z" stroke="#9C9C9C" stroke-width="2"/>
<path d="M13 3V5C13 6.88562 13 7.82843 13.5858 8.41421C14.1716 9 15.1144 9 17 9H19" stroke="#9C9C9C" stroke-width="2"/>
</g>
<path d="M10 12H9.5C9.22386 12 9 12.2239 9 12.5V13.7929C9 13.9255 8.94732 14.0527 8.85355 14.1464L8.35355 14.6464C8.15829 14.8417 8.15829 15.1583 8.35355 15.3536L8.85355 15.8536C8.94732 15.9473 9 16.0745 9 16.2071V17.5C9 17.7761 9.22386 18 9.5 18H10M14 12H14.5C14.7761 12 15 12.2239 15 12.5V13.7929C15 13.9255 15.0527 14.0527 15.1464 14.1464L15.6464 14.6464C15.8417 14.8417 15.8417 15.1583 15.6464 15.3536L15.1464 15.8536C15.0527 15.9473 15 16.0745 15 16.2071V17.5C15 17.7761 14.7761 18 14.5 18H14" stroke="#9C9C9C" stroke-width="1.5" stroke-linecap="round"/>
</g>
<defs>
<clipPath id="clip0_1912_68617">
<rect width="24" height="24" fill="white"/>
</clipPath>
<clipPath id="clip1_1912_68617">
<rect width="24" height="24" fill="white"/>
</clipPath>
</defs>
</svg>
