<svg width="24" height="24" viewBox="0 0 24 24" fill="none" xmlns="http://www.w3.org/2000/svg">
<path d="M9.8 21H14.2C15.8802 21 16.7202 21 17.362 20.673C17.9265 20.3854 18.3854 19.9265 18.673 19.362C19 18.7202 19 17.8802 19 16.2V10.9882C19 10.2545 19 9.88757 18.9171 9.5423C18.8436 9.2362 18.7224 8.94356 18.5579 8.67515C18.3724 8.3724 18.113 8.11296 17.5941 7.59411L14.4059 4.40589C13.887 3.88703 13.6276 3.6276 13.3249 3.44208C13.0564 3.27759 12.7638 3.15638 12.4577 3.08289C12.1124 3 11.7455 3 11.0118 3H9.8C8.11984 3 7.27976 3 6.63803 3.32698C6.07354 3.6146 5.6146 4.07354 5.32698 4.63803C5 5.27976 5 6.11984 5 7.8V16.2C5 17.8802 5 18.7202 5.32698 19.362C5.6146 19.9265 6.07354 20.3854 6.63803 20.673C7.27976 21 8.11984 21 9.8 21Z" stroke="#9C9C9C" stroke-width="1.5"/>
<path d="M9 17V15" stroke="#9C9C9C" stroke-width="1.5" stroke-linecap="round" stroke-linejoin="round"/>
<path d="M12 17V12" stroke="#9C9C9C" stroke-width="1.5" stroke-linecap="round" stroke-linejoin="round"/>
<path d="M15 17V10" stroke="#9C9C9C" stroke-width="1.5" stroke-linecap="round" stroke-linejoin="round"/>
</svg>
