<svg width="24" height="24" viewBox="0 0 24 24" fill="none" xmlns="http://www.w3.org/2000/svg">
<path d="M20 12L14.544 15.41C13.6211 15.9868 13.1596 16.2752 12.6648 16.3877C12.2272 16.4871 11.7728 16.4871 11.3352 16.3877C10.8404 16.2752 10.3789 15.9868 9.45601 15.41L4 12" stroke="#9C9C9C" stroke-width="1.5" stroke-linecap="round" stroke-linejoin="round"/>
<path d="M20 16L14.544 19.41C13.6211 19.9868 13.1596 20.2752 12.6648 20.3877C12.2272 20.4871 11.7728 20.4871 11.3352 20.3877C10.8404 20.2752 10.3789 19.9868 9.45601 19.41L4 16" stroke="#9C9C9C" stroke-width="1.5" stroke-linecap="round" stroke-linejoin="round"/>
<path d="M20 7.99998L14.544 4.58997C13.6211 4.01316 13.1596 3.72475 12.6648 3.6123C12.2272 3.51286 11.7728 3.51286 11.3352 3.6123C10.8404 3.72475 10.3789 4.01316 9.45601 4.58997L4 7.99998L9.45601 11.41C10.3789 11.9868 10.8404 12.2752 11.3352 12.3877C11.7728 12.4871 12.2272 12.4871 12.6648 12.3877C13.1596 12.2752 13.6211 11.9868 14.544 11.41L20 7.99998Z" stroke="#9C9C9C" stroke-width="1.5" stroke-linecap="round" stroke-linejoin="round"/>
</svg>
