<svg width="24" height="24" viewBox="0 0 24 24" fill="none" xmlns="http://www.w3.org/2000/svg">
<path d="M12.029 2.00001C10.64 1.99831 9.26595 2.28551 7.99457 2.84329C8.57384 3.80672 9.15146 4.77235 9.72741 5.74018C11.2623 5.18016 12.9496 5.19897 14.4716 5.7931C15.0243 4.81754 15.5771 3.84364 16.1298 2.8714C14.8402 2.29459 13.4424 1.99757 12.029 2.00001Z" fill="#9C9C9C"/>
<path d="M18.0037 3.96582C17.4233 4.92374 16.8424 5.88055 16.2609 6.83626C17.5558 7.88942 18.4073 9.38873 18.6471 11.0377L22 10.9022C21.8494 9.53375 21.4166 8.21118 20.7289 7.01751C20.0412 5.82384 19.1133 4.78486 18.0037 3.96582Z" fill="#9C9C9C"/>
<path d="M7.73093 6.89623L5.92015 4.07043C3.89735 5.61985 2.5425 7.8795 2.13126 10.3897C1.72001 12.8998 2.28327 15.4719 3.70642 17.5827L6.30154 15.4331C5.47974 14.0728 5.17217 12.4646 5.43424 10.8982C5.69631 9.33181 6.51079 7.91024 7.73093 6.88962V6.89623Z" fill="#9C9C9C"/>
<path d="M18.5951 13.2654C18.3747 14.4029 17.8608 15.4635 17.104 16.3427C16.3473 17.2218 15.3738 17.8891 14.2796 18.2789C13.1855 18.6686 12.0083 18.7672 10.8642 18.5651C9.72015 18.363 8.64864 17.8671 7.75532 17.1263L5.19171 19.3171C6.53863 20.5681 8.20481 21.4254 10.0078 21.7952C11.8108 22.1649 13.681 22.0328 15.4137 21.4134C17.1464 20.7939 18.6748 19.711 19.8314 18.2832C20.9881 16.8553 21.7284 15.1377 21.9713 13.3183L18.5951 13.2654Z" fill="#9C9C9C"/>
</svg>
